<mxfile host="Electron" modified="2024-05-08T18:01:48.162Z" agent="Mozilla/5.0 (Macintosh; Intel Mac OS X 10_15_7) AppleWebKit/537.36 (KHTML, like Gecko) draw.io/24.2.5 Chrome/120.0.6099.109 Electron/28.1.0 Safari/537.36" etag="FSYGRaHZIr9VlscLQGYB" version="24.2.5" type="device">
  <diagram name="Page-1" id="2YBvvXClWsGukQMizWep">
    <mxGraphModel dx="794" dy="501" grid="1" gridSize="10" guides="1" tooltips="1" connect="1" arrows="1" fold="1" page="1" pageScale="1" pageWidth="850" pageHeight="1100" math="0" shadow="0">
      <root>
        <mxCell id="0" />
        <mxCell id="1" parent="0" />
        <mxCell id="qcaUeEqP1Mnl5PGhsz5S-101" value="" style="shape=umlLifeline;perimeter=lifelinePerimeter;whiteSpace=wrap;html=1;container=1;dropTarget=0;collapsible=0;recursiveResize=0;outlineConnect=0;portConstraint=eastwest;newEdgeStyle={&quot;curved&quot;:0,&quot;rounded&quot;:0};participant=umlBoundary;" parent="1" vertex="1">
          <mxGeometry x="321.5" y="694" width="50" height="208" as="geometry" />
        </mxCell>
        <mxCell id="qcaUeEqP1Mnl5PGhsz5S-102" value="" style="html=1;points=[[0,0,0,0,5],[0,1,0,0,-5],[1,0,0,0,5],[1,1,0,0,-5]];perimeter=orthogonalPerimeter;outlineConnect=0;targetShapes=umlLifeline;portConstraint=eastwest;newEdgeStyle={&quot;curved&quot;:0,&quot;rounded&quot;:0};" parent="qcaUeEqP1Mnl5PGhsz5S-101" vertex="1">
          <mxGeometry x="20" y="60" width="10" height="140" as="geometry" />
        </mxCell>
        <mxCell id="qcaUeEqP1Mnl5PGhsz5S-103" value="" style="shape=umlLifeline;perimeter=lifelinePerimeter;whiteSpace=wrap;html=1;container=1;dropTarget=0;collapsible=0;recursiveResize=0;outlineConnect=0;portConstraint=eastwest;newEdgeStyle={&quot;curved&quot;:0,&quot;rounded&quot;:0};participant=umlControl;" parent="1" vertex="1">
          <mxGeometry x="491.5" y="694" width="40" height="208" as="geometry" />
        </mxCell>
        <mxCell id="qcaUeEqP1Mnl5PGhsz5S-104" value="" style="html=1;points=[[0,0,0,0,5],[0,1,0,0,-5],[1,0,0,0,5],[1,1,0,0,-5]];perimeter=orthogonalPerimeter;outlineConnect=0;targetShapes=umlLifeline;portConstraint=eastwest;newEdgeStyle={&quot;curved&quot;:0,&quot;rounded&quot;:0};" parent="qcaUeEqP1Mnl5PGhsz5S-103" vertex="1">
          <mxGeometry x="15" y="70" width="10" height="110" as="geometry" />
        </mxCell>
        <mxCell id="qcaUeEqP1Mnl5PGhsz5S-105" value="" style="html=1;points=[[0,0,0,0,5],[0,1,0,0,-5],[1,0,0,0,5],[1,1,0,0,-5]];perimeter=orthogonalPerimeter;outlineConnect=0;targetShapes=umlLifeline;portConstraint=eastwest;newEdgeStyle={&quot;curved&quot;:0,&quot;rounded&quot;:0};" parent="qcaUeEqP1Mnl5PGhsz5S-103" vertex="1">
          <mxGeometry x="25" y="108" width="10" height="20" as="geometry" />
        </mxCell>
        <mxCell id="qcaUeEqP1Mnl5PGhsz5S-106" value="" style="shape=umlLifeline;perimeter=lifelinePerimeter;whiteSpace=wrap;html=1;container=1;dropTarget=0;collapsible=0;recursiveResize=0;outlineConnect=0;portConstraint=eastwest;newEdgeStyle={&quot;curved&quot;:0,&quot;rounded&quot;:0};participant=umlEntity;" parent="1" vertex="1">
          <mxGeometry x="671.5" y="694" width="40" height="208" as="geometry" />
        </mxCell>
        <mxCell id="qcaUeEqP1Mnl5PGhsz5S-109" value="" style="shape=umlLifeline;perimeter=lifelinePerimeter;whiteSpace=wrap;html=1;container=1;dropTarget=0;collapsible=0;recursiveResize=0;outlineConnect=0;portConstraint=eastwest;newEdgeStyle={&quot;curved&quot;:0,&quot;rounded&quot;:0};participant=umlActor;" parent="1" vertex="1">
          <mxGeometry x="171.5" y="695" width="20" height="207" as="geometry" />
        </mxCell>
        <mxCell id="qcaUeEqP1Mnl5PGhsz5S-110" value="editar veículo" style="html=1;verticalAlign=bottom;endArrow=block;curved=0;rounded=0;entryX=0;entryY=0;entryDx=0;entryDy=5;" parent="1" source="qcaUeEqP1Mnl5PGhsz5S-109" target="qcaUeEqP1Mnl5PGhsz5S-102" edge="1">
          <mxGeometry relative="1" as="geometry">
            <mxPoint x="261.5" y="759" as="sourcePoint" />
          </mxGeometry>
        </mxCell>
        <mxCell id="qcaUeEqP1Mnl5PGhsz5S-111" value="dados veículo" style="html=1;verticalAlign=bottom;endArrow=open;dashed=1;endSize=8;curved=0;rounded=0;" parent="1" source="qcaUeEqP1Mnl5PGhsz5S-102" edge="1">
          <mxGeometry relative="1" as="geometry">
            <mxPoint x="181.31034482758616" y="884.9999999999995" as="targetPoint" />
            <mxPoint x="321.5" y="885" as="sourcePoint" />
          </mxGeometry>
        </mxCell>
        <mxCell id="qcaUeEqP1Mnl5PGhsz5S-112" value="editarVeículo()" style="html=1;verticalAlign=bottom;endArrow=block;curved=0;rounded=0;entryX=0;entryY=0;entryDx=0;entryDy=5;" parent="1" source="qcaUeEqP1Mnl5PGhsz5S-102" target="qcaUeEqP1Mnl5PGhsz5S-104" edge="1">
          <mxGeometry relative="1" as="geometry">
            <mxPoint x="341.5" y="779" as="sourcePoint" />
          </mxGeometry>
        </mxCell>
        <mxCell id="qcaUeEqP1Mnl5PGhsz5S-116" value="&lt;font style=&quot;font-size: 10px;&quot;&gt;Operador&lt;/font&gt;" style="text;html=1;align=center;verticalAlign=middle;resizable=0;points=[];autosize=1;strokeColor=none;fillColor=none;" parent="1" vertex="1">
          <mxGeometry x="146.5" y="662" width="70" height="30" as="geometry" />
        </mxCell>
        <mxCell id="qcaUeEqP1Mnl5PGhsz5S-117" value="&lt;font style=&quot;font-size: 10px;&quot;&gt;Interface - editar veículo&lt;/font&gt;" style="text;html=1;align=center;verticalAlign=middle;resizable=0;points=[];autosize=1;strokeColor=none;fillColor=none;" parent="1" vertex="1">
          <mxGeometry x="281.5" y="664" width="130" height="30" as="geometry" />
        </mxCell>
        <mxCell id="qcaUeEqP1Mnl5PGhsz5S-118" value="&lt;span style=&quot;font-size: 10px;&quot;&gt;Controlador&lt;/span&gt;" style="text;html=1;align=center;verticalAlign=middle;resizable=0;points=[];autosize=1;strokeColor=none;fillColor=none;" parent="1" vertex="1">
          <mxGeometry x="471.5" y="664" width="80" height="30" as="geometry" />
        </mxCell>
        <mxCell id="qcaUeEqP1Mnl5PGhsz5S-119" value="&lt;font style=&quot;font-size: 10px;&quot;&gt;Veículo&lt;/font&gt;" style="text;html=1;align=center;verticalAlign=middle;resizable=0;points=[];autosize=1;strokeColor=none;fillColor=none;" parent="1" vertex="1">
          <mxGeometry x="661.5" y="664" width="60" height="30" as="geometry" />
        </mxCell>
        <mxCell id="qcaUeEqP1Mnl5PGhsz5S-126" value="atualiza veículo" style="html=1;verticalAlign=bottom;endArrow=block;curved=0;rounded=0;" parent="1" edge="1">
          <mxGeometry relative="1" as="geometry">
            <mxPoint x="516.5" y="836" as="sourcePoint" />
            <mxPoint x="691" y="836" as="targetPoint" />
          </mxGeometry>
        </mxCell>
        <mxCell id="qcaUeEqP1Mnl5PGhsz5S-127" value="dados veículo" style="html=1;verticalAlign=bottom;endArrow=open;dashed=1;endSize=8;curved=0;rounded=0;" parent="1" edge="1">
          <mxGeometry relative="1" as="geometry">
            <mxPoint x="516.5" y="856" as="targetPoint" />
            <mxPoint x="691" y="856" as="sourcePoint" />
          </mxGeometry>
        </mxCell>
        <mxCell id="qcaUeEqP1Mnl5PGhsz5S-128" value="dados veículo" style="html=1;verticalAlign=bottom;endArrow=open;dashed=1;endSize=8;curved=0;rounded=0;" parent="1" edge="1">
          <mxGeometry relative="1" as="geometry">
            <mxPoint x="351.5" y="864" as="targetPoint" />
            <mxPoint x="506.5" y="864" as="sourcePoint" />
          </mxGeometry>
        </mxCell>
        <mxCell id="qcaUeEqP1Mnl5PGhsz5S-129" value="" style="shape=umlLifeline;perimeter=lifelinePerimeter;whiteSpace=wrap;html=1;container=1;dropTarget=0;collapsible=0;recursiveResize=0;outlineConnect=0;portConstraint=eastwest;newEdgeStyle={&quot;curved&quot;:0,&quot;rounded&quot;:0};participant=umlBoundary;" parent="1" vertex="1">
          <mxGeometry x="328" y="1042" width="50" height="240" as="geometry" />
        </mxCell>
        <mxCell id="qcaUeEqP1Mnl5PGhsz5S-131" value="" style="shape=umlLifeline;perimeter=lifelinePerimeter;whiteSpace=wrap;html=1;container=1;dropTarget=0;collapsible=0;recursiveResize=0;outlineConnect=0;portConstraint=eastwest;newEdgeStyle={&quot;curved&quot;:0,&quot;rounded&quot;:0};participant=umlControl;" parent="1" vertex="1">
          <mxGeometry x="498" y="1042" width="40" height="240" as="geometry" />
        </mxCell>
        <mxCell id="qcaUeEqP1Mnl5PGhsz5S-132" value="" style="html=1;points=[[0,0,0,0,5],[0,1,0,0,-5],[1,0,0,0,5],[1,1,0,0,-5]];perimeter=orthogonalPerimeter;outlineConnect=0;targetShapes=umlLifeline;portConstraint=eastwest;newEdgeStyle={&quot;curved&quot;:0,&quot;rounded&quot;:0};" parent="qcaUeEqP1Mnl5PGhsz5S-131" vertex="1">
          <mxGeometry x="15" y="70" width="10" height="120" as="geometry" />
        </mxCell>
        <mxCell id="qcaUeEqP1Mnl5PGhsz5S-133" value="" style="html=1;points=[[0,0,0,0,5],[0,1,0,0,-5],[1,0,0,0,5],[1,1,0,0,-5]];perimeter=orthogonalPerimeter;outlineConnect=0;targetShapes=umlLifeline;portConstraint=eastwest;newEdgeStyle={&quot;curved&quot;:0,&quot;rounded&quot;:0};" parent="qcaUeEqP1Mnl5PGhsz5S-131" vertex="1">
          <mxGeometry x="25" y="150" width="10" height="20" as="geometry" />
        </mxCell>
        <mxCell id="5Ciee9gP285YPZu9WXT5-11" value="" style="edgeStyle=segmentEdgeStyle;endArrow=classic;html=1;curved=0;rounded=0;endSize=8;startSize=8;sourcePerimeterSpacing=0;targetPerimeterSpacing=0;entryX=1;entryY=0;entryDx=0;entryDy=5;entryPerimeter=0;" edge="1" parent="qcaUeEqP1Mnl5PGhsz5S-131" source="qcaUeEqP1Mnl5PGhsz5S-131" target="qcaUeEqP1Mnl5PGhsz5S-133">
          <mxGeometry width="100" relative="1" as="geometry">
            <mxPoint x="42" y="138" as="sourcePoint" />
            <mxPoint x="42" y="168" as="targetPoint" />
            <Array as="points">
              <mxPoint x="62" y="120" />
              <mxPoint x="62" y="158" />
              <mxPoint x="42" y="158" />
              <mxPoint x="42" y="155" />
            </Array>
          </mxGeometry>
        </mxCell>
        <mxCell id="qcaUeEqP1Mnl5PGhsz5S-134" value="" style="shape=umlLifeline;perimeter=lifelinePerimeter;whiteSpace=wrap;html=1;container=1;dropTarget=0;collapsible=0;recursiveResize=0;outlineConnect=0;portConstraint=eastwest;newEdgeStyle={&quot;curved&quot;:0,&quot;rounded&quot;:0};participant=umlEntity;" parent="1" vertex="1">
          <mxGeometry x="678" y="1042" width="40" height="240" as="geometry" />
        </mxCell>
        <mxCell id="qcaUeEqP1Mnl5PGhsz5S-135" value="" style="html=1;points=[[0,0,0,0,5],[0,1,0,0,-5],[1,0,0,0,5],[1,1,0,0,-5]];perimeter=orthogonalPerimeter;outlineConnect=0;targetShapes=umlLifeline;portConstraint=eastwest;newEdgeStyle={&quot;curved&quot;:0,&quot;rounded&quot;:0};" parent="qcaUeEqP1Mnl5PGhsz5S-134" vertex="1">
          <mxGeometry x="15" y="80" width="10" height="30" as="geometry" />
        </mxCell>
        <mxCell id="qcaUeEqP1Mnl5PGhsz5S-136" value="" style="shape=umlLifeline;perimeter=lifelinePerimeter;whiteSpace=wrap;html=1;container=1;dropTarget=0;collapsible=0;recursiveResize=0;outlineConnect=0;portConstraint=eastwest;newEdgeStyle={&quot;curved&quot;:0,&quot;rounded&quot;:0};participant=umlActor;" parent="1" vertex="1">
          <mxGeometry x="178" y="1043" width="20" height="239" as="geometry" />
        </mxCell>
        <mxCell id="qcaUeEqP1Mnl5PGhsz5S-137" value="informa código do veículo" style="html=1;verticalAlign=bottom;endArrow=block;curved=0;rounded=0;" parent="1" edge="1">
          <mxGeometry relative="1" as="geometry">
            <mxPoint x="187.5" y="1107.5" as="sourcePoint" />
            <mxPoint x="352.5" y="1107.5" as="targetPoint" />
          </mxGeometry>
        </mxCell>
        <mxCell id="qcaUeEqP1Mnl5PGhsz5S-139" value="excluirVeículo()" style="html=1;verticalAlign=bottom;endArrow=block;curved=0;rounded=0;entryX=0;entryY=0;entryDx=0;entryDy=5;" parent="1" target="qcaUeEqP1Mnl5PGhsz5S-132" edge="1">
          <mxGeometry relative="1" as="geometry">
            <mxPoint x="358" y="1117" as="sourcePoint" />
          </mxGeometry>
        </mxCell>
        <mxCell id="qcaUeEqP1Mnl5PGhsz5S-140" value="return" style="html=1;verticalAlign=bottom;endArrow=open;dashed=1;endSize=8;curved=0;rounded=0;exitX=0;exitY=1;exitDx=0;exitDy=-5;" parent="1" source="qcaUeEqP1Mnl5PGhsz5S-135" target="qcaUeEqP1Mnl5PGhsz5S-132" edge="1">
          <mxGeometry relative="1" as="geometry">
            <mxPoint x="548" y="1197" as="targetPoint" />
          </mxGeometry>
        </mxCell>
        <mxCell id="qcaUeEqP1Mnl5PGhsz5S-141" value="consulta código do veículo" style="html=1;verticalAlign=bottom;endArrow=block;curved=0;rounded=0;entryX=0;entryY=0;entryDx=0;entryDy=5;" parent="1" source="qcaUeEqP1Mnl5PGhsz5S-132" target="qcaUeEqP1Mnl5PGhsz5S-135" edge="1">
          <mxGeometry relative="1" as="geometry">
            <mxPoint x="548" y="1127" as="sourcePoint" />
          </mxGeometry>
        </mxCell>
        <mxCell id="qcaUeEqP1Mnl5PGhsz5S-143" value="&lt;font style=&quot;font-size: 10px;&quot;&gt;Interface - excluir veículo&lt;/font&gt;" style="text;html=1;align=center;verticalAlign=middle;resizable=0;points=[];autosize=1;strokeColor=none;fillColor=none;" parent="1" vertex="1">
          <mxGeometry x="288" y="1002" width="130" height="30" as="geometry" />
        </mxCell>
        <mxCell id="qcaUeEqP1Mnl5PGhsz5S-144" value="&lt;span style=&quot;font-size: 10px;&quot;&gt;Controlador&lt;/span&gt;" style="text;html=1;align=center;verticalAlign=middle;resizable=0;points=[];autosize=1;strokeColor=none;fillColor=none;" parent="1" vertex="1">
          <mxGeometry x="478" y="1002" width="80" height="30" as="geometry" />
        </mxCell>
        <mxCell id="qcaUeEqP1Mnl5PGhsz5S-145" value="&lt;font style=&quot;font-size: 10px;&quot;&gt;Veículo&lt;/font&gt;" style="text;html=1;align=center;verticalAlign=middle;resizable=0;points=[];autosize=1;strokeColor=none;fillColor=none;" parent="1" vertex="1">
          <mxGeometry x="667" y="1002" width="60" height="30" as="geometry" />
        </mxCell>
        <mxCell id="mxjDtC-QwRGY6r_ryfve-4" value="" style="shape=umlLifeline;perimeter=lifelinePerimeter;whiteSpace=wrap;html=1;container=1;dropTarget=0;collapsible=0;recursiveResize=0;outlineConnect=0;portConstraint=eastwest;newEdgeStyle={&quot;curved&quot;:0,&quot;rounded&quot;:0};participant=umlActor;" parent="1" vertex="1">
          <mxGeometry x="166" y="82" width="20" height="220" as="geometry" />
        </mxCell>
        <mxCell id="mxjDtC-QwRGY6r_ryfve-5" value="Operador" style="text;html=1;align=center;verticalAlign=middle;resizable=0;points=[];autosize=1;strokeColor=none;fillColor=none;" parent="1" vertex="1">
          <mxGeometry x="140" y="50" width="70" height="30" as="geometry" />
        </mxCell>
        <mxCell id="mxjDtC-QwRGY6r_ryfve-9" value="" style="shape=umlLifeline;perimeter=lifelinePerimeter;whiteSpace=wrap;html=1;container=1;dropTarget=0;collapsible=0;recursiveResize=0;outlineConnect=0;portConstraint=eastwest;newEdgeStyle={&quot;curved&quot;:0,&quot;rounded&quot;:0};participant=umlEntity;" parent="1" vertex="1">
          <mxGeometry x="316" y="82" width="40" height="220" as="geometry" />
        </mxCell>
        <mxCell id="mxjDtC-QwRGY6r_ryfve-21" value="" style="html=1;points=[[0,0,0,0,5],[0,1,0,0,-5],[1,0,0,0,5],[1,1,0,0,-5]];perimeter=orthogonalPerimeter;outlineConnect=0;targetShapes=umlLifeline;portConstraint=eastwest;newEdgeStyle={&quot;curved&quot;:0,&quot;rounded&quot;:0};" parent="mxjDtC-QwRGY6r_ryfve-9" vertex="1">
          <mxGeometry x="15" y="60" width="10" height="140" as="geometry" />
        </mxCell>
        <mxCell id="mxjDtC-QwRGY6r_ryfve-10" value="interface - cadastrar veículo" style="text;html=1;align=center;verticalAlign=middle;resizable=0;points=[];autosize=1;strokeColor=none;fillColor=none;" parent="1" vertex="1">
          <mxGeometry x="251" y="51" width="170" height="30" as="geometry" />
        </mxCell>
        <mxCell id="mxjDtC-QwRGY6r_ryfve-13" value="" style="shape=umlLifeline;perimeter=lifelinePerimeter;whiteSpace=wrap;html=1;container=1;dropTarget=0;collapsible=0;recursiveResize=0;outlineConnect=0;portConstraint=eastwest;newEdgeStyle={&quot;curved&quot;:0,&quot;rounded&quot;:0};participant=umlControl;" parent="1" vertex="1">
          <mxGeometry x="466" y="82" width="40" height="210" as="geometry" />
        </mxCell>
        <mxCell id="mxjDtC-QwRGY6r_ryfve-27" value="" style="html=1;points=[[0,0,0,0,5],[0,1,0,0,-5],[1,0,0,0,5],[1,1,0,0,-5]];perimeter=orthogonalPerimeter;outlineConnect=0;targetShapes=umlLifeline;portConstraint=eastwest;newEdgeStyle={&quot;curved&quot;:0,&quot;rounded&quot;:0};" parent="mxjDtC-QwRGY6r_ryfve-13" vertex="1">
          <mxGeometry x="15" y="70" width="10" height="120" as="geometry" />
        </mxCell>
        <mxCell id="mxjDtC-QwRGY6r_ryfve-31" value="" style="html=1;points=[[0,0,0,0,5],[0,1,0,0,-5],[1,0,0,0,5],[1,1,0,0,-5]];perimeter=orthogonalPerimeter;outlineConnect=0;targetShapes=umlLifeline;portConstraint=eastwest;newEdgeStyle={&quot;curved&quot;:0,&quot;rounded&quot;:0};" parent="mxjDtC-QwRGY6r_ryfve-13" vertex="1">
          <mxGeometry x="20" y="109" width="10" height="20" as="geometry" />
        </mxCell>
        <mxCell id="mxjDtC-QwRGY6r_ryfve-14" value="Controlador" style="text;html=1;align=center;verticalAlign=middle;resizable=0;points=[];autosize=1;strokeColor=none;fillColor=none;" parent="1" vertex="1">
          <mxGeometry x="441" y="51" width="90" height="30" as="geometry" />
        </mxCell>
        <mxCell id="mxjDtC-QwRGY6r_ryfve-16" value="" style="shape=umlLifeline;perimeter=lifelinePerimeter;whiteSpace=wrap;html=1;container=1;dropTarget=0;collapsible=0;recursiveResize=0;outlineConnect=0;portConstraint=eastwest;newEdgeStyle={&quot;curved&quot;:0,&quot;rounded&quot;:0};participant=umlEntity;" parent="1" vertex="1">
          <mxGeometry x="620" y="81" width="40" height="211" as="geometry" />
        </mxCell>
        <mxCell id="mxjDtC-QwRGY6r_ryfve-33" value="" style="html=1;points=[[0,0,0,0,5],[0,1,0,0,-5],[1,0,0,0,5],[1,1,0,0,-5]];perimeter=orthogonalPerimeter;outlineConnect=0;targetShapes=umlLifeline;portConstraint=eastwest;newEdgeStyle={&quot;curved&quot;:0,&quot;rounded&quot;:0};" parent="mxjDtC-QwRGY6r_ryfve-16" vertex="1">
          <mxGeometry x="15" y="151" width="10" height="29" as="geometry" />
        </mxCell>
        <mxCell id="mxjDtC-QwRGY6r_ryfve-20" value="Banco de Dados" style="text;html=1;align=center;verticalAlign=middle;resizable=0;points=[];autosize=1;strokeColor=none;fillColor=none;" parent="1" vertex="1">
          <mxGeometry x="585" y="50" width="110" height="30" as="geometry" />
        </mxCell>
        <mxCell id="mxjDtC-QwRGY6r_ryfve-22" value="cadastra veículo" style="html=1;verticalAlign=bottom;endArrow=block;curved=0;rounded=0;entryX=0;entryY=0;entryDx=0;entryDy=5;" parent="1" source="mxjDtC-QwRGY6r_ryfve-4" target="mxjDtC-QwRGY6r_ryfve-21" edge="1">
          <mxGeometry relative="1" as="geometry">
            <mxPoint x="261" y="147" as="sourcePoint" />
          </mxGeometry>
        </mxCell>
        <mxCell id="mxjDtC-QwRGY6r_ryfve-23" value="dados veículo" style="html=1;verticalAlign=bottom;endArrow=open;dashed=1;endSize=8;curved=0;rounded=0;exitX=0;exitY=1;exitDx=0;exitDy=-5;" parent="1" source="mxjDtC-QwRGY6r_ryfve-21" target="mxjDtC-QwRGY6r_ryfve-4" edge="1">
          <mxGeometry relative="1" as="geometry">
            <mxPoint x="261" y="217" as="targetPoint" />
          </mxGeometry>
        </mxCell>
        <mxCell id="mxjDtC-QwRGY6r_ryfve-28" value="cadastrarVeículo()" style="html=1;verticalAlign=bottom;endArrow=block;curved=0;rounded=0;entryX=0;entryY=0;entryDx=0;entryDy=5;" parent="1" source="mxjDtC-QwRGY6r_ryfve-21" target="mxjDtC-QwRGY6r_ryfve-27" edge="1">
          <mxGeometry relative="1" as="geometry">
            <mxPoint x="411" y="157" as="sourcePoint" />
          </mxGeometry>
        </mxCell>
        <mxCell id="mxjDtC-QwRGY6r_ryfve-29" value="dados veículo" style="html=1;verticalAlign=bottom;endArrow=open;dashed=1;endSize=8;curved=0;rounded=0;exitX=0;exitY=1;exitDx=0;exitDy=-5;" parent="1" source="mxjDtC-QwRGY6r_ryfve-27" target="mxjDtC-QwRGY6r_ryfve-21" edge="1">
          <mxGeometry relative="1" as="geometry">
            <mxPoint x="371" y="252" as="targetPoint" />
          </mxGeometry>
        </mxCell>
        <mxCell id="mxjDtC-QwRGY6r_ryfve-34" value="persistir dados do veículo" style="html=1;verticalAlign=bottom;endArrow=block;curved=0;rounded=0;entryX=0;entryY=0;entryDx=0;entryDy=5;" parent="1" source="mxjDtC-QwRGY6r_ryfve-27" target="mxjDtC-QwRGY6r_ryfve-33" edge="1">
          <mxGeometry relative="1" as="geometry">
            <mxPoint x="536" y="217" as="sourcePoint" />
          </mxGeometry>
        </mxCell>
        <mxCell id="mxjDtC-QwRGY6r_ryfve-35" value="dados veículo" style="html=1;verticalAlign=bottom;endArrow=open;dashed=1;endSize=8;curved=0;rounded=0;exitX=0;exitY=1;exitDx=0;exitDy=-5;" parent="1" source="mxjDtC-QwRGY6r_ryfve-33" target="mxjDtC-QwRGY6r_ryfve-27" edge="1">
          <mxGeometry relative="1" as="geometry">
            <mxPoint x="521" y="276" as="targetPoint" />
          </mxGeometry>
        </mxCell>
        <mxCell id="mxjDtC-QwRGY6r_ryfve-37" value="" style="shape=umlLifeline;perimeter=lifelinePerimeter;whiteSpace=wrap;html=1;container=1;dropTarget=0;collapsible=0;recursiveResize=0;outlineConnect=0;portConstraint=eastwest;newEdgeStyle={&quot;curved&quot;:0,&quot;rounded&quot;:0};participant=umlActor;" parent="1" vertex="1">
          <mxGeometry x="174" y="410" width="20" height="160" as="geometry" />
        </mxCell>
        <mxCell id="mxjDtC-QwRGY6r_ryfve-38" value="Operador" style="text;html=1;align=center;verticalAlign=middle;resizable=0;points=[];autosize=1;strokeColor=none;fillColor=none;" parent="1" vertex="1">
          <mxGeometry x="153" y="370" width="70" height="30" as="geometry" />
        </mxCell>
        <mxCell id="mxjDtC-QwRGY6r_ryfve-39" value="" style="shape=umlLifeline;perimeter=lifelinePerimeter;whiteSpace=wrap;html=1;container=1;dropTarget=0;collapsible=0;recursiveResize=0;outlineConnect=0;portConstraint=eastwest;newEdgeStyle={&quot;curved&quot;:0,&quot;rounded&quot;:0};participant=umlEntity;" parent="1" vertex="1">
          <mxGeometry x="324" y="408" width="40" height="162" as="geometry" />
        </mxCell>
        <mxCell id="mxjDtC-QwRGY6r_ryfve-46" value="" style="html=1;points=[[0,0,0,0,5],[0,1,0,0,-5],[1,0,0,0,5],[1,1,0,0,-5]];perimeter=orthogonalPerimeter;outlineConnect=0;targetShapes=umlLifeline;portConstraint=eastwest;newEdgeStyle={&quot;curved&quot;:0,&quot;rounded&quot;:0};" parent="mxjDtC-QwRGY6r_ryfve-39" vertex="1">
          <mxGeometry x="15" y="52" width="10" height="78" as="geometry" />
        </mxCell>
        <mxCell id="mxjDtC-QwRGY6r_ryfve-40" value="interface - consultar veículo" style="text;html=1;align=center;verticalAlign=middle;resizable=0;points=[];autosize=1;strokeColor=none;fillColor=none;" parent="1" vertex="1">
          <mxGeometry x="259" y="370" width="170" height="30" as="geometry" />
        </mxCell>
        <mxCell id="mxjDtC-QwRGY6r_ryfve-42" value="" style="shape=umlLifeline;perimeter=lifelinePerimeter;whiteSpace=wrap;html=1;container=1;dropTarget=0;collapsible=0;recursiveResize=0;outlineConnect=0;portConstraint=eastwest;newEdgeStyle={&quot;curved&quot;:0,&quot;rounded&quot;:0};participant=umlControl;" parent="1" vertex="1">
          <mxGeometry x="474" y="408" width="40" height="162" as="geometry" />
        </mxCell>
        <mxCell id="mxjDtC-QwRGY6r_ryfve-43" value="Controlador" style="text;html=1;align=center;verticalAlign=middle;resizable=0;points=[];autosize=1;strokeColor=none;fillColor=none;" parent="1" vertex="1">
          <mxGeometry x="449" y="370" width="90" height="30" as="geometry" />
        </mxCell>
        <mxCell id="mxjDtC-QwRGY6r_ryfve-44" value="" style="shape=umlLifeline;perimeter=lifelinePerimeter;whiteSpace=wrap;html=1;container=1;dropTarget=0;collapsible=0;recursiveResize=0;outlineConnect=0;portConstraint=eastwest;newEdgeStyle={&quot;curved&quot;:0,&quot;rounded&quot;:0};participant=umlEntity;" parent="1" vertex="1">
          <mxGeometry x="628" y="408" width="40" height="162" as="geometry" />
        </mxCell>
        <mxCell id="mxjDtC-QwRGY6r_ryfve-49" value="" style="html=1;points=[[0,0,0,0,5],[0,1,0,0,-5],[1,0,0,0,5],[1,1,0,0,-5]];perimeter=orthogonalPerimeter;outlineConnect=0;targetShapes=umlLifeline;portConstraint=eastwest;newEdgeStyle={&quot;curved&quot;:0,&quot;rounded&quot;:0};" parent="mxjDtC-QwRGY6r_ryfve-44" vertex="1">
          <mxGeometry x="15" y="64" width="10" height="54" as="geometry" />
        </mxCell>
        <mxCell id="mxjDtC-QwRGY6r_ryfve-45" value="Banco de Dados" style="text;html=1;align=center;verticalAlign=middle;resizable=0;points=[];autosize=1;strokeColor=none;fillColor=none;" parent="1" vertex="1">
          <mxGeometry x="593" y="370" width="110" height="30" as="geometry" />
        </mxCell>
        <mxCell id="mxjDtC-QwRGY6r_ryfve-47" value="consultar veículo" style="html=1;verticalAlign=bottom;endArrow=block;curved=0;rounded=0;entryX=0;entryY=0;entryDx=0;entryDy=5;" parent="1" source="mxjDtC-QwRGY6r_ryfve-37" target="mxjDtC-QwRGY6r_ryfve-46" edge="1">
          <mxGeometry relative="1" as="geometry">
            <mxPoint x="269" y="465" as="sourcePoint" />
          </mxGeometry>
        </mxCell>
        <mxCell id="mxjDtC-QwRGY6r_ryfve-48" value="dados veículo" style="html=1;verticalAlign=bottom;endArrow=open;dashed=1;endSize=8;curved=0;rounded=0;exitX=0;exitY=1;exitDx=0;exitDy=-5;" parent="1" source="mxjDtC-QwRGY6r_ryfve-46" target="mxjDtC-QwRGY6r_ryfve-37" edge="1">
          <mxGeometry relative="1" as="geometry">
            <mxPoint x="269" y="535" as="targetPoint" />
          </mxGeometry>
        </mxCell>
        <mxCell id="mxjDtC-QwRGY6r_ryfve-50" value="buscarVeículo()" style="html=1;verticalAlign=bottom;endArrow=block;curved=0;rounded=0;entryX=0;entryY=0;entryDx=0;entryDy=5;" parent="1" source="mxjDtC-QwRGY6r_ryfve-46" target="mxjDtC-QwRGY6r_ryfve-49" edge="1">
          <mxGeometry relative="1" as="geometry">
            <mxPoint x="418" y="479" as="sourcePoint" />
          </mxGeometry>
        </mxCell>
        <mxCell id="mxjDtC-QwRGY6r_ryfve-51" value="dados veículo" style="html=1;verticalAlign=bottom;endArrow=open;dashed=1;endSize=8;curved=0;rounded=0;exitX=0;exitY=1;exitDx=0;exitDy=-5;" parent="1" source="mxjDtC-QwRGY6r_ryfve-49" target="mxjDtC-QwRGY6r_ryfve-46" edge="1">
          <mxGeometry relative="1" as="geometry">
            <mxPoint x="418" y="549" as="targetPoint" />
          </mxGeometry>
        </mxCell>
        <mxCell id="mxjDtC-QwRGY6r_ryfve-55" value="Operador" style="text;html=1;align=center;verticalAlign=middle;resizable=0;points=[];autosize=1;strokeColor=none;fillColor=none;" parent="1" vertex="1">
          <mxGeometry x="153" y="1002" width="70" height="30" as="geometry" />
        </mxCell>
        <mxCell id="mxjDtC-QwRGY6r_ryfve-57" value="excluir registro do veículo" style="html=1;verticalAlign=bottom;endArrow=block;curved=0;rounded=0;" parent="1" source="qcaUeEqP1Mnl5PGhsz5S-131" edge="1">
          <mxGeometry relative="1" as="geometry">
            <mxPoint x="523" y="1241" as="sourcePoint" />
            <mxPoint x="697.5" y="1241" as="targetPoint" />
          </mxGeometry>
        </mxCell>
        <mxCell id="mxjDtC-QwRGY6r_ryfve-61" value="Cadastro de Veiculos" style="text;html=1;align=center;verticalAlign=middle;resizable=0;points=[];autosize=1;strokeColor=none;fillColor=none;" parent="1" vertex="1">
          <mxGeometry x="336" y="8" width="140" height="30" as="geometry" />
        </mxCell>
        <mxCell id="mxjDtC-QwRGY6r_ryfve-62" value="Consultar veículo" style="text;html=1;align=center;verticalAlign=middle;resizable=0;points=[];autosize=1;strokeColor=none;fillColor=none;" parent="1" vertex="1">
          <mxGeometry x="350" y="330" width="120" height="30" as="geometry" />
        </mxCell>
        <mxCell id="mxjDtC-QwRGY6r_ryfve-63" value="Editar veículo" style="text;html=1;align=center;verticalAlign=middle;resizable=0;points=[];autosize=1;strokeColor=none;fillColor=none;" parent="1" vertex="1">
          <mxGeometry x="362.5" y="630" width="100" height="30" as="geometry" />
        </mxCell>
        <mxCell id="mxjDtC-QwRGY6r_ryfve-64" value="Excluir veículo" style="text;html=1;align=center;verticalAlign=middle;resizable=0;points=[];autosize=1;strokeColor=none;fillColor=none;" parent="1" vertex="1">
          <mxGeometry x="383" y="960" width="100" height="30" as="geometry" />
        </mxCell>
        <mxCell id="mxjDtC-QwRGY6r_ryfve-66" value="" style="shape=umlLifeline;perimeter=lifelinePerimeter;whiteSpace=wrap;html=1;container=1;dropTarget=0;collapsible=0;recursiveResize=0;outlineConnect=0;portConstraint=eastwest;newEdgeStyle={&quot;curved&quot;:0,&quot;rounded&quot;:0};participant=umlBoundary;" parent="1" vertex="1">
          <mxGeometry x="321.5" y="2096" width="50" height="208" as="geometry" />
        </mxCell>
        <mxCell id="mxjDtC-QwRGY6r_ryfve-67" value="" style="html=1;points=[[0,0,0,0,5],[0,1,0,0,-5],[1,0,0,0,5],[1,1,0,0,-5]];perimeter=orthogonalPerimeter;outlineConnect=0;targetShapes=umlLifeline;portConstraint=eastwest;newEdgeStyle={&quot;curved&quot;:0,&quot;rounded&quot;:0};" parent="mxjDtC-QwRGY6r_ryfve-66" vertex="1">
          <mxGeometry x="20" y="60" width="10" height="140" as="geometry" />
        </mxCell>
        <mxCell id="mxjDtC-QwRGY6r_ryfve-68" value="" style="shape=umlLifeline;perimeter=lifelinePerimeter;whiteSpace=wrap;html=1;container=1;dropTarget=0;collapsible=0;recursiveResize=0;outlineConnect=0;portConstraint=eastwest;newEdgeStyle={&quot;curved&quot;:0,&quot;rounded&quot;:0};participant=umlControl;" parent="1" vertex="1">
          <mxGeometry x="491.5" y="2096" width="40" height="208" as="geometry" />
        </mxCell>
        <mxCell id="mxjDtC-QwRGY6r_ryfve-69" value="" style="html=1;points=[[0,0,0,0,5],[0,1,0,0,-5],[1,0,0,0,5],[1,1,0,0,-5]];perimeter=orthogonalPerimeter;outlineConnect=0;targetShapes=umlLifeline;portConstraint=eastwest;newEdgeStyle={&quot;curved&quot;:0,&quot;rounded&quot;:0};" parent="mxjDtC-QwRGY6r_ryfve-68" vertex="1">
          <mxGeometry x="15" y="70" width="10" height="110" as="geometry" />
        </mxCell>
        <mxCell id="mxjDtC-QwRGY6r_ryfve-70" value="" style="html=1;points=[[0,0,0,0,5],[0,1,0,0,-5],[1,0,0,0,5],[1,1,0,0,-5]];perimeter=orthogonalPerimeter;outlineConnect=0;targetShapes=umlLifeline;portConstraint=eastwest;newEdgeStyle={&quot;curved&quot;:0,&quot;rounded&quot;:0};" parent="mxjDtC-QwRGY6r_ryfve-68" vertex="1">
          <mxGeometry x="25" y="108" width="10" height="20" as="geometry" />
        </mxCell>
        <mxCell id="5Ciee9gP285YPZu9WXT5-15" value="" style="edgeStyle=segmentEdgeStyle;endArrow=classic;html=1;curved=0;rounded=0;endSize=8;startSize=8;sourcePerimeterSpacing=0;targetPerimeterSpacing=0;entryX=1;entryY=0;entryDx=0;entryDy=5;entryPerimeter=0;" edge="1" parent="mxjDtC-QwRGY6r_ryfve-68" source="mxjDtC-QwRGY6r_ryfve-69" target="mxjDtC-QwRGY6r_ryfve-70">
          <mxGeometry width="100" relative="1" as="geometry">
            <mxPoint x="48.5" y="74" as="sourcePoint" />
            <mxPoint x="48.5" y="114" as="targetPoint" />
            <Array as="points">
              <mxPoint x="59" y="84" />
              <mxPoint x="59" y="113" />
            </Array>
          </mxGeometry>
        </mxCell>
        <mxCell id="mxjDtC-QwRGY6r_ryfve-71" value="" style="shape=umlLifeline;perimeter=lifelinePerimeter;whiteSpace=wrap;html=1;container=1;dropTarget=0;collapsible=0;recursiveResize=0;outlineConnect=0;portConstraint=eastwest;newEdgeStyle={&quot;curved&quot;:0,&quot;rounded&quot;:0};participant=umlEntity;" parent="1" vertex="1">
          <mxGeometry x="671.5" y="2096" width="40" height="208" as="geometry" />
        </mxCell>
        <mxCell id="mxjDtC-QwRGY6r_ryfve-72" value="" style="shape=umlLifeline;perimeter=lifelinePerimeter;whiteSpace=wrap;html=1;container=1;dropTarget=0;collapsible=0;recursiveResize=0;outlineConnect=0;portConstraint=eastwest;newEdgeStyle={&quot;curved&quot;:0,&quot;rounded&quot;:0};participant=umlActor;" parent="1" vertex="1">
          <mxGeometry x="171.5" y="2097" width="20" height="207" as="geometry" />
        </mxCell>
        <mxCell id="mxjDtC-QwRGY6r_ryfve-73" value="editar peça" style="html=1;verticalAlign=bottom;endArrow=block;curved=0;rounded=0;entryX=0;entryY=0;entryDx=0;entryDy=5;" parent="1" source="mxjDtC-QwRGY6r_ryfve-72" target="mxjDtC-QwRGY6r_ryfve-67" edge="1">
          <mxGeometry relative="1" as="geometry">
            <mxPoint x="261.5" y="2161" as="sourcePoint" />
          </mxGeometry>
        </mxCell>
        <mxCell id="mxjDtC-QwRGY6r_ryfve-74" value="dados peça" style="html=1;verticalAlign=bottom;endArrow=open;dashed=1;endSize=8;curved=0;rounded=0;" parent="1" source="mxjDtC-QwRGY6r_ryfve-67" edge="1">
          <mxGeometry relative="1" as="geometry">
            <mxPoint x="181.31034482758616" y="2286.9999999999995" as="targetPoint" />
            <mxPoint x="321.5" y="2287" as="sourcePoint" />
          </mxGeometry>
        </mxCell>
        <mxCell id="mxjDtC-QwRGY6r_ryfve-75" value="editarPeça()" style="html=1;verticalAlign=bottom;endArrow=block;curved=0;rounded=0;entryX=0;entryY=0;entryDx=0;entryDy=5;" parent="1" source="mxjDtC-QwRGY6r_ryfve-67" target="mxjDtC-QwRGY6r_ryfve-69" edge="1">
          <mxGeometry relative="1" as="geometry">
            <mxPoint x="341.5" y="2181" as="sourcePoint" />
          </mxGeometry>
        </mxCell>
        <mxCell id="mxjDtC-QwRGY6r_ryfve-77" value="&lt;font style=&quot;font-size: 10px;&quot;&gt;Operador&lt;/font&gt;" style="text;html=1;align=center;verticalAlign=middle;resizable=0;points=[];autosize=1;strokeColor=none;fillColor=none;" parent="1" vertex="1">
          <mxGeometry x="146.5" y="2064" width="70" height="30" as="geometry" />
        </mxCell>
        <mxCell id="mxjDtC-QwRGY6r_ryfve-78" value="&lt;font style=&quot;font-size: 10px;&quot;&gt;interface - editar peça&lt;/font&gt;" style="text;html=1;align=center;verticalAlign=middle;resizable=0;points=[];autosize=1;strokeColor=none;fillColor=none;" parent="1" vertex="1">
          <mxGeometry x="286.5" y="2066" width="120" height="30" as="geometry" />
        </mxCell>
        <mxCell id="mxjDtC-QwRGY6r_ryfve-79" value="&lt;span style=&quot;font-size: 10px;&quot;&gt;Controlador&lt;/span&gt;" style="text;html=1;align=center;verticalAlign=middle;resizable=0;points=[];autosize=1;strokeColor=none;fillColor=none;" parent="1" vertex="1">
          <mxGeometry x="471.5" y="2066" width="80" height="30" as="geometry" />
        </mxCell>
        <mxCell id="mxjDtC-QwRGY6r_ryfve-80" value="&lt;span style=&quot;font-size: 10px;&quot;&gt;Banco de Dados&lt;/span&gt;" style="text;html=1;align=center;verticalAlign=middle;resizable=0;points=[];autosize=1;strokeColor=none;fillColor=none;" parent="1" vertex="1">
          <mxGeometry x="641.5" y="2066" width="100" height="30" as="geometry" />
        </mxCell>
        <mxCell id="mxjDtC-QwRGY6r_ryfve-81" value="atualiza peça" style="html=1;verticalAlign=bottom;endArrow=block;curved=0;rounded=0;" parent="1" edge="1">
          <mxGeometry relative="1" as="geometry">
            <mxPoint x="516.5" y="2238" as="sourcePoint" />
            <mxPoint x="691" y="2238" as="targetPoint" />
          </mxGeometry>
        </mxCell>
        <mxCell id="mxjDtC-QwRGY6r_ryfve-82" value="dados peça" style="html=1;verticalAlign=bottom;endArrow=open;dashed=1;endSize=8;curved=0;rounded=0;" parent="1" edge="1">
          <mxGeometry relative="1" as="geometry">
            <mxPoint x="516.5" y="2258" as="targetPoint" />
            <mxPoint x="691" y="2258" as="sourcePoint" />
          </mxGeometry>
        </mxCell>
        <mxCell id="mxjDtC-QwRGY6r_ryfve-83" value="dados peça" style="html=1;verticalAlign=bottom;endArrow=open;dashed=1;endSize=8;curved=0;rounded=0;" parent="1" edge="1">
          <mxGeometry relative="1" as="geometry">
            <mxPoint x="351.5" y="2266" as="targetPoint" />
            <mxPoint x="506.5" y="2266" as="sourcePoint" />
          </mxGeometry>
        </mxCell>
        <mxCell id="mxjDtC-QwRGY6r_ryfve-84" value="" style="shape=umlLifeline;perimeter=lifelinePerimeter;whiteSpace=wrap;html=1;container=1;dropTarget=0;collapsible=0;recursiveResize=0;outlineConnect=0;portConstraint=eastwest;newEdgeStyle={&quot;curved&quot;:0,&quot;rounded&quot;:0};participant=umlBoundary;" parent="1" vertex="1">
          <mxGeometry x="328" y="2444" width="50" height="186" as="geometry" />
        </mxCell>
        <mxCell id="mxjDtC-QwRGY6r_ryfve-85" value="" style="shape=umlLifeline;perimeter=lifelinePerimeter;whiteSpace=wrap;html=1;container=1;dropTarget=0;collapsible=0;recursiveResize=0;outlineConnect=0;portConstraint=eastwest;newEdgeStyle={&quot;curved&quot;:0,&quot;rounded&quot;:0};participant=umlControl;" parent="1" vertex="1">
          <mxGeometry x="498" y="2444" width="40" height="186" as="geometry" />
        </mxCell>
        <mxCell id="mxjDtC-QwRGY6r_ryfve-86" value="" style="html=1;points=[[0,0,0,0,5],[0,1,0,0,-5],[1,0,0,0,5],[1,1,0,0,-5]];perimeter=orthogonalPerimeter;outlineConnect=0;targetShapes=umlLifeline;portConstraint=eastwest;newEdgeStyle={&quot;curved&quot;:0,&quot;rounded&quot;:0};" parent="mxjDtC-QwRGY6r_ryfve-85" vertex="1">
          <mxGeometry x="15" y="70" width="10" height="70" as="geometry" />
        </mxCell>
        <mxCell id="mxjDtC-QwRGY6r_ryfve-87" value="" style="html=1;points=[[0,0,0,0,5],[0,1,0,0,-5],[1,0,0,0,5],[1,1,0,0,-5]];perimeter=orthogonalPerimeter;outlineConnect=0;targetShapes=umlLifeline;portConstraint=eastwest;newEdgeStyle={&quot;curved&quot;:0,&quot;rounded&quot;:0};" parent="mxjDtC-QwRGY6r_ryfve-85" vertex="1">
          <mxGeometry x="25" y="106" width="10" height="20" as="geometry" />
        </mxCell>
        <mxCell id="5Ciee9gP285YPZu9WXT5-17" value="" style="edgeStyle=segmentEdgeStyle;endArrow=classic;html=1;curved=0;rounded=0;endSize=8;startSize=8;sourcePerimeterSpacing=0;targetPerimeterSpacing=0;" edge="1" parent="mxjDtC-QwRGY6r_ryfve-85" source="mxjDtC-QwRGY6r_ryfve-86" target="mxjDtC-QwRGY6r_ryfve-87">
          <mxGeometry width="100" relative="1" as="geometry">
            <mxPoint x="42" y="56" as="sourcePoint" />
            <mxPoint x="42" y="116" as="targetPoint" />
            <Array as="points">
              <mxPoint x="62" y="86" />
              <mxPoint x="62" y="116" />
            </Array>
          </mxGeometry>
        </mxCell>
        <mxCell id="mxjDtC-QwRGY6r_ryfve-88" value="" style="shape=umlLifeline;perimeter=lifelinePerimeter;whiteSpace=wrap;html=1;container=1;dropTarget=0;collapsible=0;recursiveResize=0;outlineConnect=0;portConstraint=eastwest;newEdgeStyle={&quot;curved&quot;:0,&quot;rounded&quot;:0};participant=umlEntity;" parent="1" vertex="1">
          <mxGeometry x="678" y="2444" width="40" height="196" as="geometry" />
        </mxCell>
        <mxCell id="mxjDtC-QwRGY6r_ryfve-90" value="" style="shape=umlLifeline;perimeter=lifelinePerimeter;whiteSpace=wrap;html=1;container=1;dropTarget=0;collapsible=0;recursiveResize=0;outlineConnect=0;portConstraint=eastwest;newEdgeStyle={&quot;curved&quot;:0,&quot;rounded&quot;:0};participant=umlActor;" parent="1" vertex="1">
          <mxGeometry x="178" y="2445" width="20" height="175" as="geometry" />
        </mxCell>
        <mxCell id="mxjDtC-QwRGY6r_ryfve-91" value="excluir peça" style="html=1;verticalAlign=bottom;endArrow=block;curved=0;rounded=0;" parent="1" edge="1">
          <mxGeometry relative="1" as="geometry">
            <mxPoint x="187.5" y="2509.5" as="sourcePoint" />
            <mxPoint x="352.5" y="2509.5" as="targetPoint" />
          </mxGeometry>
        </mxCell>
        <mxCell id="mxjDtC-QwRGY6r_ryfve-92" value="excluirPeça()" style="html=1;verticalAlign=bottom;endArrow=block;curved=0;rounded=0;entryX=0;entryY=0;entryDx=0;entryDy=5;" parent="1" target="mxjDtC-QwRGY6r_ryfve-86" edge="1">
          <mxGeometry relative="1" as="geometry">
            <mxPoint x="358" y="2519" as="sourcePoint" />
          </mxGeometry>
        </mxCell>
        <mxCell id="mxjDtC-QwRGY6r_ryfve-96" value="&lt;font style=&quot;font-size: 10px;&quot;&gt;Interface - excluir veículo&lt;/font&gt;" style="text;html=1;align=center;verticalAlign=middle;resizable=0;points=[];autosize=1;strokeColor=none;fillColor=none;" parent="1" vertex="1">
          <mxGeometry x="288" y="2404" width="130" height="30" as="geometry" />
        </mxCell>
        <mxCell id="mxjDtC-QwRGY6r_ryfve-97" value="&lt;span style=&quot;font-size: 10px;&quot;&gt;Controlador&lt;/span&gt;" style="text;html=1;align=center;verticalAlign=middle;resizable=0;points=[];autosize=1;strokeColor=none;fillColor=none;" parent="1" vertex="1">
          <mxGeometry x="478" y="2404" width="80" height="30" as="geometry" />
        </mxCell>
        <mxCell id="mxjDtC-QwRGY6r_ryfve-98" value="&lt;span style=&quot;font-size: 10px;&quot;&gt;Banco de Dados&lt;/span&gt;" style="text;html=1;align=center;verticalAlign=middle;resizable=0;points=[];autosize=1;strokeColor=none;fillColor=none;" parent="1" vertex="1">
          <mxGeometry x="647" y="2404" width="100" height="30" as="geometry" />
        </mxCell>
        <mxCell id="mxjDtC-QwRGY6r_ryfve-99" value="" style="shape=umlLifeline;perimeter=lifelinePerimeter;whiteSpace=wrap;html=1;container=1;dropTarget=0;collapsible=0;recursiveResize=0;outlineConnect=0;portConstraint=eastwest;newEdgeStyle={&quot;curved&quot;:0,&quot;rounded&quot;:0};participant=umlActor;" parent="1" vertex="1">
          <mxGeometry x="187.5" y="1444" width="20" height="220" as="geometry" />
        </mxCell>
        <mxCell id="mxjDtC-QwRGY6r_ryfve-100" value="Operador" style="text;html=1;align=center;verticalAlign=middle;resizable=0;points=[];autosize=1;strokeColor=none;fillColor=none;" parent="1" vertex="1">
          <mxGeometry x="161.5" y="1412" width="70" height="30" as="geometry" />
        </mxCell>
        <mxCell id="mxjDtC-QwRGY6r_ryfve-101" value="" style="shape=umlLifeline;perimeter=lifelinePerimeter;whiteSpace=wrap;html=1;container=1;dropTarget=0;collapsible=0;recursiveResize=0;outlineConnect=0;portConstraint=eastwest;newEdgeStyle={&quot;curved&quot;:0,&quot;rounded&quot;:0};participant=umlEntity;" parent="1" vertex="1">
          <mxGeometry x="337.5" y="1444" width="40" height="220" as="geometry" />
        </mxCell>
        <mxCell id="mxjDtC-QwRGY6r_ryfve-102" value="" style="html=1;points=[[0,0,0,0,5],[0,1,0,0,-5],[1,0,0,0,5],[1,1,0,0,-5]];perimeter=orthogonalPerimeter;outlineConnect=0;targetShapes=umlLifeline;portConstraint=eastwest;newEdgeStyle={&quot;curved&quot;:0,&quot;rounded&quot;:0};" parent="mxjDtC-QwRGY6r_ryfve-101" vertex="1">
          <mxGeometry x="15" y="60" width="10" height="140" as="geometry" />
        </mxCell>
        <mxCell id="mxjDtC-QwRGY6r_ryfve-103" value="interface - cadastrar peça" style="text;html=1;align=center;verticalAlign=middle;resizable=0;points=[];autosize=1;strokeColor=none;fillColor=none;" parent="1" vertex="1">
          <mxGeometry x="277.5" y="1413" width="160" height="30" as="geometry" />
        </mxCell>
        <mxCell id="mxjDtC-QwRGY6r_ryfve-104" value="" style="shape=umlLifeline;perimeter=lifelinePerimeter;whiteSpace=wrap;html=1;container=1;dropTarget=0;collapsible=0;recursiveResize=0;outlineConnect=0;portConstraint=eastwest;newEdgeStyle={&quot;curved&quot;:0,&quot;rounded&quot;:0};participant=umlControl;" parent="1" vertex="1">
          <mxGeometry x="487.5" y="1444" width="40" height="210" as="geometry" />
        </mxCell>
        <mxCell id="mxjDtC-QwRGY6r_ryfve-105" value="" style="html=1;points=[[0,0,0,0,5],[0,1,0,0,-5],[1,0,0,0,5],[1,1,0,0,-5]];perimeter=orthogonalPerimeter;outlineConnect=0;targetShapes=umlLifeline;portConstraint=eastwest;newEdgeStyle={&quot;curved&quot;:0,&quot;rounded&quot;:0};" parent="mxjDtC-QwRGY6r_ryfve-104" vertex="1">
          <mxGeometry x="15" y="70" width="10" height="120" as="geometry" />
        </mxCell>
        <mxCell id="mxjDtC-QwRGY6r_ryfve-106" value="" style="html=1;points=[[0,0,0,0,5],[0,1,0,0,-5],[1,0,0,0,5],[1,1,0,0,-5]];perimeter=orthogonalPerimeter;outlineConnect=0;targetShapes=umlLifeline;portConstraint=eastwest;newEdgeStyle={&quot;curved&quot;:0,&quot;rounded&quot;:0};" parent="mxjDtC-QwRGY6r_ryfve-104" vertex="1">
          <mxGeometry x="20" y="109" width="10" height="20" as="geometry" />
        </mxCell>
        <mxCell id="mxjDtC-QwRGY6r_ryfve-108" value="Controlador" style="text;html=1;align=center;verticalAlign=middle;resizable=0;points=[];autosize=1;strokeColor=none;fillColor=none;" parent="1" vertex="1">
          <mxGeometry x="462.5" y="1413" width="90" height="30" as="geometry" />
        </mxCell>
        <mxCell id="mxjDtC-QwRGY6r_ryfve-109" value="" style="shape=umlLifeline;perimeter=lifelinePerimeter;whiteSpace=wrap;html=1;container=1;dropTarget=0;collapsible=0;recursiveResize=0;outlineConnect=0;portConstraint=eastwest;newEdgeStyle={&quot;curved&quot;:0,&quot;rounded&quot;:0};participant=umlEntity;" parent="1" vertex="1">
          <mxGeometry x="641.5" y="1443" width="40" height="211" as="geometry" />
        </mxCell>
        <mxCell id="mxjDtC-QwRGY6r_ryfve-110" value="" style="html=1;points=[[0,0,0,0,5],[0,1,0,0,-5],[1,0,0,0,5],[1,1,0,0,-5]];perimeter=orthogonalPerimeter;outlineConnect=0;targetShapes=umlLifeline;portConstraint=eastwest;newEdgeStyle={&quot;curved&quot;:0,&quot;rounded&quot;:0};" parent="mxjDtC-QwRGY6r_ryfve-109" vertex="1">
          <mxGeometry x="15" y="151" width="10" height="29" as="geometry" />
        </mxCell>
        <mxCell id="mxjDtC-QwRGY6r_ryfve-111" value="Banco de Dados" style="text;html=1;align=center;verticalAlign=middle;resizable=0;points=[];autosize=1;strokeColor=none;fillColor=none;" parent="1" vertex="1">
          <mxGeometry x="606.5" y="1412" width="110" height="30" as="geometry" />
        </mxCell>
        <mxCell id="mxjDtC-QwRGY6r_ryfve-112" value="cadastra peça" style="html=1;verticalAlign=bottom;endArrow=block;curved=0;rounded=0;entryX=0;entryY=0;entryDx=0;entryDy=5;" parent="1" source="mxjDtC-QwRGY6r_ryfve-99" target="mxjDtC-QwRGY6r_ryfve-102" edge="1">
          <mxGeometry relative="1" as="geometry">
            <mxPoint x="282.5" y="1509" as="sourcePoint" />
          </mxGeometry>
        </mxCell>
        <mxCell id="mxjDtC-QwRGY6r_ryfve-113" value="dados peça" style="html=1;verticalAlign=bottom;endArrow=open;dashed=1;endSize=8;curved=0;rounded=0;exitX=0;exitY=1;exitDx=0;exitDy=-5;" parent="1" source="mxjDtC-QwRGY6r_ryfve-102" target="mxjDtC-QwRGY6r_ryfve-99" edge="1">
          <mxGeometry x="0.0032" relative="1" as="geometry">
            <mxPoint x="282.5" y="1579" as="targetPoint" />
            <mxPoint as="offset" />
          </mxGeometry>
        </mxCell>
        <mxCell id="mxjDtC-QwRGY6r_ryfve-114" value="cadastrarPeça()" style="html=1;verticalAlign=bottom;endArrow=block;curved=0;rounded=0;entryX=0;entryY=0;entryDx=0;entryDy=5;" parent="1" source="mxjDtC-QwRGY6r_ryfve-102" target="mxjDtC-QwRGY6r_ryfve-105" edge="1">
          <mxGeometry relative="1" as="geometry">
            <mxPoint x="432.5" y="1519" as="sourcePoint" />
          </mxGeometry>
        </mxCell>
        <mxCell id="mxjDtC-QwRGY6r_ryfve-115" value="dados peça" style="html=1;verticalAlign=bottom;endArrow=open;dashed=1;endSize=8;curved=0;rounded=0;exitX=0;exitY=1;exitDx=0;exitDy=-5;" parent="1" source="mxjDtC-QwRGY6r_ryfve-105" target="mxjDtC-QwRGY6r_ryfve-102" edge="1">
          <mxGeometry relative="1" as="geometry">
            <mxPoint x="392.5" y="1614" as="targetPoint" />
          </mxGeometry>
        </mxCell>
        <mxCell id="mxjDtC-QwRGY6r_ryfve-116" value="persistir dados de peça" style="html=1;verticalAlign=bottom;endArrow=block;curved=0;rounded=0;entryX=0;entryY=0;entryDx=0;entryDy=5;" parent="1" source="mxjDtC-QwRGY6r_ryfve-105" target="mxjDtC-QwRGY6r_ryfve-110" edge="1">
          <mxGeometry relative="1" as="geometry">
            <mxPoint x="557.5" y="1579" as="sourcePoint" />
          </mxGeometry>
        </mxCell>
        <mxCell id="mxjDtC-QwRGY6r_ryfve-117" value="dados peça" style="html=1;verticalAlign=bottom;endArrow=open;dashed=1;endSize=8;curved=0;rounded=0;exitX=0;exitY=1;exitDx=0;exitDy=-5;" parent="1" source="mxjDtC-QwRGY6r_ryfve-110" target="mxjDtC-QwRGY6r_ryfve-105" edge="1">
          <mxGeometry relative="1" as="geometry">
            <mxPoint x="542.5" y="1638" as="targetPoint" />
          </mxGeometry>
        </mxCell>
        <mxCell id="mxjDtC-QwRGY6r_ryfve-118" value="" style="shape=umlLifeline;perimeter=lifelinePerimeter;whiteSpace=wrap;html=1;container=1;dropTarget=0;collapsible=0;recursiveResize=0;outlineConnect=0;portConstraint=eastwest;newEdgeStyle={&quot;curved&quot;:0,&quot;rounded&quot;:0};participant=umlActor;" parent="1" vertex="1">
          <mxGeometry x="192.5" y="1812" width="20" height="160" as="geometry" />
        </mxCell>
        <mxCell id="mxjDtC-QwRGY6r_ryfve-119" value="Operador" style="text;html=1;align=center;verticalAlign=middle;resizable=0;points=[];autosize=1;strokeColor=none;fillColor=none;fontSize=11;" parent="1" vertex="1">
          <mxGeometry x="171.5" y="1772" width="70" height="30" as="geometry" />
        </mxCell>
        <mxCell id="mxjDtC-QwRGY6r_ryfve-120" value="" style="shape=umlLifeline;perimeter=lifelinePerimeter;whiteSpace=wrap;html=1;container=1;dropTarget=0;collapsible=0;recursiveResize=0;outlineConnect=0;portConstraint=eastwest;newEdgeStyle={&quot;curved&quot;:0,&quot;rounded&quot;:0};participant=umlEntity;" parent="1" vertex="1">
          <mxGeometry x="342.5" y="1810" width="40" height="162" as="geometry" />
        </mxCell>
        <mxCell id="mxjDtC-QwRGY6r_ryfve-121" value="" style="html=1;points=[[0,0,0,0,5],[0,1,0,0,-5],[1,0,0,0,5],[1,1,0,0,-5]];perimeter=orthogonalPerimeter;outlineConnect=0;targetShapes=umlLifeline;portConstraint=eastwest;newEdgeStyle={&quot;curved&quot;:0,&quot;rounded&quot;:0};" parent="mxjDtC-QwRGY6r_ryfve-120" vertex="1">
          <mxGeometry x="15" y="52" width="10" height="78" as="geometry" />
        </mxCell>
        <mxCell id="mxjDtC-QwRGY6r_ryfve-122" value="Interface - consultar peça" style="text;html=1;align=center;verticalAlign=middle;resizable=0;points=[];autosize=1;strokeColor=none;fillColor=none;fontSize=11;" parent="1" vertex="1">
          <mxGeometry x="287.5" y="1772" width="150" height="30" as="geometry" />
        </mxCell>
        <mxCell id="mxjDtC-QwRGY6r_ryfve-123" value="" style="shape=umlLifeline;perimeter=lifelinePerimeter;whiteSpace=wrap;html=1;container=1;dropTarget=0;collapsible=0;recursiveResize=0;outlineConnect=0;portConstraint=eastwest;newEdgeStyle={&quot;curved&quot;:0,&quot;rounded&quot;:0};participant=umlControl;" parent="1" vertex="1">
          <mxGeometry x="492.5" y="1810" width="40" height="162" as="geometry" />
        </mxCell>
        <mxCell id="mxjDtC-QwRGY6r_ryfve-124" value="Controlador" style="text;html=1;align=center;verticalAlign=middle;resizable=0;points=[];autosize=1;strokeColor=none;fillColor=none;fontSize=11;" parent="1" vertex="1">
          <mxGeometry x="472.5" y="1772" width="80" height="30" as="geometry" />
        </mxCell>
        <mxCell id="mxjDtC-QwRGY6r_ryfve-125" value="" style="shape=umlLifeline;perimeter=lifelinePerimeter;whiteSpace=wrap;html=1;container=1;dropTarget=0;collapsible=0;recursiveResize=0;outlineConnect=0;portConstraint=eastwest;newEdgeStyle={&quot;curved&quot;:0,&quot;rounded&quot;:0};participant=umlEntity;" parent="1" vertex="1">
          <mxGeometry x="646.5" y="1810" width="40" height="162" as="geometry" />
        </mxCell>
        <mxCell id="mxjDtC-QwRGY6r_ryfve-126" value="" style="html=1;points=[[0,0,0,0,5],[0,1,0,0,-5],[1,0,0,0,5],[1,1,0,0,-5]];perimeter=orthogonalPerimeter;outlineConnect=0;targetShapes=umlLifeline;portConstraint=eastwest;newEdgeStyle={&quot;curved&quot;:0,&quot;rounded&quot;:0};" parent="mxjDtC-QwRGY6r_ryfve-125" vertex="1">
          <mxGeometry x="15" y="64" width="10" height="54" as="geometry" />
        </mxCell>
        <mxCell id="mxjDtC-QwRGY6r_ryfve-127" value="Base de dados" style="text;html=1;align=center;verticalAlign=middle;resizable=0;points=[];autosize=1;strokeColor=none;fillColor=none;fontSize=11;" parent="1" vertex="1">
          <mxGeometry x="616.5" y="1772" width="100" height="30" as="geometry" />
        </mxCell>
        <mxCell id="mxjDtC-QwRGY6r_ryfve-128" value="consultar peça" style="html=1;verticalAlign=bottom;endArrow=block;curved=0;rounded=0;entryX=0;entryY=0;entryDx=0;entryDy=5;" parent="1" source="mxjDtC-QwRGY6r_ryfve-118" target="mxjDtC-QwRGY6r_ryfve-121" edge="1">
          <mxGeometry relative="1" as="geometry">
            <mxPoint x="287.5" y="1867" as="sourcePoint" />
          </mxGeometry>
        </mxCell>
        <mxCell id="mxjDtC-QwRGY6r_ryfve-129" value="dados peça" style="html=1;verticalAlign=bottom;endArrow=open;dashed=1;endSize=8;curved=0;rounded=0;exitX=0;exitY=1;exitDx=0;exitDy=-5;" parent="1" source="mxjDtC-QwRGY6r_ryfve-121" target="mxjDtC-QwRGY6r_ryfve-118" edge="1">
          <mxGeometry relative="1" as="geometry">
            <mxPoint x="287.5" y="1937" as="targetPoint" />
          </mxGeometry>
        </mxCell>
        <mxCell id="mxjDtC-QwRGY6r_ryfve-130" value="buscarPeça()" style="html=1;verticalAlign=bottom;endArrow=block;curved=0;rounded=0;entryX=0;entryY=0;entryDx=0;entryDy=5;" parent="1" source="mxjDtC-QwRGY6r_ryfve-121" target="mxjDtC-QwRGY6r_ryfve-126" edge="1">
          <mxGeometry relative="1" as="geometry">
            <mxPoint x="436.5" y="1881" as="sourcePoint" />
          </mxGeometry>
        </mxCell>
        <mxCell id="mxjDtC-QwRGY6r_ryfve-131" value="dados peça" style="html=1;verticalAlign=bottom;endArrow=open;dashed=1;endSize=8;curved=0;rounded=0;exitX=0;exitY=1;exitDx=0;exitDy=-5;" parent="1" source="mxjDtC-QwRGY6r_ryfve-126" target="mxjDtC-QwRGY6r_ryfve-121" edge="1">
          <mxGeometry relative="1" as="geometry">
            <mxPoint x="436.5" y="1951" as="targetPoint" />
          </mxGeometry>
        </mxCell>
        <mxCell id="mxjDtC-QwRGY6r_ryfve-132" value="Operador" style="text;html=1;align=center;verticalAlign=middle;resizable=0;points=[];autosize=1;strokeColor=none;fillColor=none;" parent="1" vertex="1">
          <mxGeometry x="153" y="2404" width="70" height="30" as="geometry" />
        </mxCell>
        <mxCell id="mxjDtC-QwRGY6r_ryfve-133" value="excluir registro de peça" style="html=1;verticalAlign=bottom;endArrow=block;curved=0;rounded=0;" parent="1" edge="1">
          <mxGeometry relative="1" as="geometry">
            <mxPoint x="517.5" y="2609" as="sourcePoint" />
            <mxPoint x="697.5" y="2609" as="targetPoint" />
          </mxGeometry>
        </mxCell>
        <mxCell id="mxjDtC-QwRGY6r_ryfve-134" value="Cadastrar peça" style="text;html=1;align=center;verticalAlign=middle;resizable=0;points=[];autosize=1;strokeColor=none;fillColor=none;" parent="1" vertex="1">
          <mxGeometry x="372.5" y="1370" width="110" height="30" as="geometry" />
        </mxCell>
        <mxCell id="mxjDtC-QwRGY6r_ryfve-135" value="Consultar peça" style="text;html=1;align=center;verticalAlign=middle;resizable=0;points=[];autosize=1;strokeColor=none;fillColor=none;" parent="1" vertex="1">
          <mxGeometry x="378.5" y="1732" width="100" height="30" as="geometry" />
        </mxCell>
        <mxCell id="mxjDtC-QwRGY6r_ryfve-136" value="Editar peça" style="text;html=1;align=center;verticalAlign=middle;resizable=0;points=[];autosize=1;strokeColor=none;fillColor=none;" parent="1" vertex="1">
          <mxGeometry x="372.5" y="2032" width="80" height="30" as="geometry" />
        </mxCell>
        <mxCell id="mxjDtC-QwRGY6r_ryfve-137" value="Excluir peça" style="text;html=1;align=center;verticalAlign=middle;resizable=0;points=[];autosize=1;strokeColor=none;fillColor=none;" parent="1" vertex="1">
          <mxGeometry x="388" y="2362" width="90" height="30" as="geometry" />
        </mxCell>
        <mxCell id="5Ciee9gP285YPZu9WXT5-4" value="" style="edgeStyle=segmentEdgeStyle;endArrow=classic;html=1;curved=0;rounded=0;endSize=8;startSize=8;sourcePerimeterSpacing=0;targetPerimeterSpacing=0;" edge="1" parent="1">
          <mxGeometry width="100" relative="1" as="geometry">
            <mxPoint x="490" y="160" as="sourcePoint" />
            <mxPoint x="500" y="200" as="targetPoint" />
            <Array as="points">
              <mxPoint x="490" y="170" />
              <mxPoint x="540" y="170" />
              <mxPoint x="540" y="200" />
            </Array>
          </mxGeometry>
        </mxCell>
        <mxCell id="5Ciee9gP285YPZu9WXT5-5" value="&lt;font style=&quot;font-size: 8px;&quot;&gt;&lt;font style=&quot;font-size: 8px;&quot;&gt;Va&lt;/font&gt;lida dados ja fornecidos&lt;/font&gt;&lt;div style=&quot;font-size: 8px;&quot;&gt;&lt;font style=&quot;font-size: 8px;&quot;&gt;&lt;br&gt;&lt;/font&gt;&lt;/div&gt;" style="text;html=1;align=center;verticalAlign=middle;resizable=0;points=[];autosize=1;strokeColor=none;fillColor=none;" vertex="1" parent="1">
          <mxGeometry x="492.5" y="150" width="120" height="40" as="geometry" />
        </mxCell>
        <mxCell id="5Ciee9gP285YPZu9WXT5-9" value="" style="edgeStyle=segmentEdgeStyle;endArrow=classic;html=1;curved=0;rounded=0;endSize=8;startSize=8;sourcePerimeterSpacing=0;targetPerimeterSpacing=0;entryX=0.809;entryY=-0.131;entryDx=0;entryDy=0;entryPerimeter=0;" edge="1" parent="1">
          <mxGeometry width="100" relative="1" as="geometry">
            <mxPoint x="516.5" y="782.81" as="sourcePoint" />
            <mxPoint x="524.5899999999999" y="813.19" as="targetPoint" />
            <Array as="points">
              <mxPoint x="550" y="782.81" />
              <mxPoint x="550" y="812.81" />
            </Array>
          </mxGeometry>
        </mxCell>
        <mxCell id="5Ciee9gP285YPZu9WXT5-10" value="&lt;font style=&quot;font-size: 8px;&quot;&gt;Validação veiculos&amp;nbsp;&lt;/font&gt;&lt;span style=&quot;font-size: 8px; background-color: initial;&quot;&gt;já existentes&lt;/span&gt;&lt;div&gt;&lt;span style=&quot;font-size: 8px;&quot;&gt;e se dados são únicos&lt;/span&gt;&lt;/div&gt;&lt;div&gt;&lt;span style=&quot;font-size: 8px;&quot;&gt;&lt;br&gt;&lt;/span&gt;&lt;/div&gt;" style="text;html=1;align=center;verticalAlign=middle;resizable=0;points=[];autosize=1;strokeColor=none;fillColor=none;" vertex="1" parent="1">
          <mxGeometry x="522" y="755" width="140" height="60" as="geometry" />
        </mxCell>
        <mxCell id="5Ciee9gP285YPZu9WXT5-12" value="&lt;span style=&quot;font-size: 8px;&quot;&gt;Validação se já&lt;/span&gt;&lt;div&gt;&lt;span style=&quot;font-size: 8px;&quot;&gt;existe peça associada&amp;nbsp;&lt;/span&gt;&lt;/div&gt;&lt;div&gt;&lt;span style=&quot;font-size: 8px;&quot;&gt;ao veículo&lt;/span&gt;&lt;/div&gt;&lt;div&gt;&lt;span style=&quot;font-size: 8px;&quot;&gt;&lt;br&gt;&lt;/span&gt;&lt;/div&gt;" style="text;html=1;align=center;verticalAlign=middle;resizable=0;points=[];autosize=1;strokeColor=none;fillColor=none;" vertex="1" parent="1">
          <mxGeometry x="551.5" y="1160" width="100" height="70" as="geometry" />
        </mxCell>
        <mxCell id="5Ciee9gP285YPZu9WXT5-13" value="" style="edgeStyle=segmentEdgeStyle;endArrow=classic;html=1;curved=0;rounded=0;endSize=8;startSize=8;sourcePerimeterSpacing=0;targetPerimeterSpacing=0;" edge="1" parent="1" source="mxjDtC-QwRGY6r_ryfve-104">
          <mxGeometry width="100" relative="1" as="geometry">
            <mxPoint x="530" y="1540" as="sourcePoint" />
            <mxPoint x="520" y="1560" as="targetPoint" />
            <Array as="points">
              <mxPoint x="540" y="1520" />
              <mxPoint x="540" y="1560" />
            </Array>
          </mxGeometry>
        </mxCell>
        <mxCell id="5Ciee9gP285YPZu9WXT5-14" value="&lt;span style=&quot;font-size: 8px;&quot;&gt;Válida se já existe&lt;/span&gt;&lt;div&gt;&lt;span style=&quot;font-size: 8px;&quot;&gt;dados fornecidos&lt;/span&gt;&lt;/div&gt;" style="text;html=1;align=center;verticalAlign=middle;resizable=0;points=[];autosize=1;strokeColor=none;fillColor=none;" vertex="1" parent="1">
          <mxGeometry x="530" y="1520" width="90" height="40" as="geometry" />
        </mxCell>
        <mxCell id="5Ciee9gP285YPZu9WXT5-16" value="&lt;span style=&quot;font-size: 8px;&quot;&gt;Validaç!ao de peça já eistente&lt;/span&gt;&lt;div&gt;&lt;span style=&quot;font-size: 8px;&quot;&gt;e dados únicos&lt;/span&gt;&lt;/div&gt;&lt;div&gt;&lt;span style=&quot;font-size: 8px;&quot;&gt;&lt;br&gt;&lt;/span&gt;&lt;/div&gt;" style="text;html=1;align=center;verticalAlign=middle;resizable=0;points=[];autosize=1;strokeColor=none;fillColor=none;" vertex="1" parent="1">
          <mxGeometry x="538" y="2170.5" width="130" height="60" as="geometry" />
        </mxCell>
        <mxCell id="5Ciee9gP285YPZu9WXT5-19" value="&lt;span style=&quot;font-size: 8px;&quot;&gt;Valida se já existe peça&lt;/span&gt;&lt;div&gt;&lt;span style=&quot;font-size: 8px;&quot;&gt;&lt;br&gt;&lt;/span&gt;&lt;/div&gt;" style="text;html=1;align=center;verticalAlign=middle;resizable=0;points=[];autosize=1;strokeColor=none;fillColor=none;" vertex="1" parent="1">
          <mxGeometry x="550" y="2530" width="110" height="40" as="geometry" />
        </mxCell>
      </root>
    </mxGraphModel>
  </diagram>
</mxfile>
